<svg xmlns="http://www.w3.org/2000/svg" version="1.1" xmlns:xlink="http://www.w3.org/1999/xlink" xmlns:svgjs="http://svgjs.dev/svgjs" width="1000" height="1000" viewBox="0 0 1000 1000"><rect width="1000" height="1000" fill="#f2e9f6"></rect><g transform="matrix(0.7,0,0,0.7,150.0017001702771,106.25)"><svg viewBox="0 0 320 360" data-background-color="#f2e9f6" preserveAspectRatio="xMidYMid meet" height="1125" width="1000" xmlns="http://www.w3.org/2000/svg" xmlns:xlink="http://www.w3.org/1999/xlink"><g id="tight-bounds" transform="matrix(1,0,0,1,-0.0003214121143741977,0)"><svg viewBox="0 0 320 360" height="360" width="320"><rect width="320.0010986328125" height="360" fill="url(#9eee9184-4d4f-49b0-b6b7-983dab6521cc)" mask="url(#b0fbd575-6397-4795-ac92-4ffef9a8bd89)" data-fill-palette-color="tertiary"></rect><g><svg></svg></g><g><svg viewBox="0 0 320 360" height="360" width="320"><g><path xmlns="http://www.w3.org/2000/svg" d="M307.925 179.999l6.575-11.387c11.322-19.607 4.604-44.679-15.003-56.001l-11.387-6.575v-13.151c0-22.639-18.354-40.994-40.994-40.994h-13.151l-6.575-11.387c-11.322-19.607-36.393-26.325-56.001-15.003l-11.39 6.572-11.387-6.576c-19.607-11.318-44.679-4.6-56.001 15.007l-6.575 11.387h-13.151c-22.639 0-40.994 18.354-40.994 40.994v13.151l-11.387 6.575c-19.607 11.322-26.325 36.393-15.003 56.001l6.572 11.387-6.576 11.387c-11.318 19.607-4.6 44.679 15.007 56l11.387 6.576v13.15c0 22.639 18.354 40.994 40.994 40.994h13.151l6.575 11.387c11.322 19.607 36.393 26.325 56.001 15.003l11.387-6.571 11.387 6.575c19.607 11.322 44.679 4.604 56-15.003l6.576-11.387h13.15c22.639 0 40.994-18.354 40.994-40.994v-13.151l11.387-6.575c19.607-11.322 26.325-36.393 15.003-56.001zM297.702 115.716c8.655 4.996 14.842 13.062 17.428 22.713 2.586 9.65 1.261 19.734-3.735 28.384l-5.538 9.596-17.747-30.74v-35.494zM251.155 271.155l-57.791 33.365h-66.731l-57.791-33.365-33.365-57.791v-66.731l33.365-57.791 57.791-33.365h66.731l57.791 33.365 33.365 57.791v66.731zM284.517 220.539v31.351l-27.151 15.676zM247.566 277.366l-15.676 27.151h-31.351zM187.15 308.106l-27.151 15.676-27.151-15.676zM119.459 304.517h-31.352l-15.676-27.151zM62.632 267.566l-27.151-15.676v-31.351zM31.891 207.15l-15.675-27.151 15.675-27.151zM35.481 139.459v-31.352l27.151-15.676zM72.431 82.632l15.676-27.151h31.352zM132.848 51.891l27.151-15.675 27.151 15.675zM200.539 55.481h31.351l15.676 27.151zM257.366 92.431l27.151 15.676v31.352zM288.106 152.848l15.676 27.151-15.676 27.151zM247.112 55.481c9.992 0 19.384 3.889 26.452 10.956 7.063 7.063 10.956 16.46 10.957 26.452v11.079l-30.741-17.747-17.747-30.74zM173.18 28.606c8.655-4.996 18.735-6.322 28.385-3.735 9.65 2.586 17.716 8.777 22.712 17.428l5.538 9.596h-35.494l-30.741-17.747zM95.716 42.295c4.996-8.655 13.062-14.842 22.713-17.428 9.65-2.586 19.734-1.261 28.384 3.736l9.596 5.537-30.74 17.747h-35.494zM35.481 92.885c0-9.992 3.889-19.384 10.956-26.452 7.063-7.063 16.46-10.956 26.452-10.956h11.079l-17.747 30.74-30.74 17.747zM8.606 166.817c-4.996-8.655-6.322-18.735-3.735-28.385 2.586-9.65 8.777-17.716 17.428-22.712l9.596-5.538v35.495l-17.747 30.74zM22.295 244.281c-8.655-4.996-14.842-13.062-17.428-22.712-2.586-9.65-1.261-19.734 3.736-28.385l5.537-9.596 17.747 30.74v35.495zM72.885 304.517c-9.992 0-19.384-3.889-26.452-10.957-7.063-7.063-10.956-16.46-10.956-26.451v-11.08l30.74 17.747 17.747 30.741zM146.817 331.391c-8.655 4.996-18.735 6.322-28.385 3.735-9.65-2.586-17.716-8.777-22.712-17.428l-5.538-9.596h35.495l30.74 17.747zM224.281 317.702c-4.996 8.655-13.062 14.842-22.712 17.428-9.65 2.586-19.734 1.261-28.385-3.735l-9.596-5.538 30.74-17.747h35.495zM284.517 267.112c0 9.992-3.889 19.384-10.957 26.452-7.063 7.063-16.46 10.956-26.451 10.957h-11.08l17.747-30.741 30.741-17.747zM315.13 221.565c-2.586 9.65-8.777 17.716-17.428 22.712l-9.596 5.538v-35.494l17.747-30.741 5.538 9.596c4.996 8.658 6.326 18.739 3.739 28.389z" fill="url(#9eee9184-4d4f-49b0-b6b7-983dab6521cc)" fill-rule="nonzero" stroke="none" stroke-width="1" stroke-linecap="butt" stroke-linejoin="miter" stroke-miterlimit="10" stroke-dasharray="" stroke-dashoffset="0" font-family="none" font-weight="none" font-size="none" text-anchor="none" style="mix-blend-mode: normal" data-fill-palette-color="tertiary"></path></g><g transform="matrix(1,0,0,1,64,152.17098133654426)"><svg viewBox="0 0 192 55.6580373269115" height="55.6580373269115" width="192"><g><svg viewBox="0 0 192 55.6580373269115" height="55.6580373269115" width="192"><g><svg viewBox="0 0 192 55.6580373269115" height="55.6580373269115" width="192"><g><svg viewBox="0 0 192 55.6580373269115" height="55.6580373269115" width="192"><g id="textblocktransform"><svg viewBox="0 0 192 55.6580373269115" height="55.6580373269115" width="192" id="textblock"><g><svg viewBox="0 0 192 55.6580373269115" height="55.6580373269115" width="192"><g transform="matrix(1,0,0,1,0,0)"><svg width="192" viewBox="2.4000000953674316 -38.79999923706055 166.0900115966797 48.150001525878906" height="55.6580373269115" data-palette-color="url(#24a3ac81-1e99-4baf-b773-4b3766b25faa)"></svg></g></svg></g></svg></g></svg></g><g></g></svg></g></svg></g></svg></g></svg></g><defs></defs><mask id="6d0875ad-6ae5-4061-8304-66acb01d8ae0"><g id="SvgjsG1418"><svg viewBox="0 0 320 360" height="360" width="320"><g><svg></svg></g><g><svg viewBox="0 0 320 360" height="360" width="320"><g></g><g transform="matrix(1,0,0,1,64,152.17098133654426)"><svg viewBox="0 0 192 55.6580373269115" height="55.6580373269115" width="192"><g><svg viewBox="0 0 192 55.6580373269115" height="55.6580373269115" width="192"><g><svg viewBox="0 0 192 55.6580373269115" height="55.6580373269115" width="192"><g><svg viewBox="0 0 192 55.6580373269115" height="55.6580373269115" width="192"><g id="SvgjsG1417"><svg viewBox="0 0 192 55.6580373269115" height="55.6580373269115" width="192" id="SvgjsSvg1416"><g><svg viewBox="0 0 192 55.6580373269115" height="55.6580373269115" width="192"><g transform="matrix(1,0,0,1,0,0)"><svg width="192" viewBox="2.4000000953674316 -38.79999923706055 166.0900115966797 48.150001525878906" height="55.6580373269115" data-palette-color="url(#24a3ac81-1e99-4baf-b773-4b3766b25faa)"><path d="M8.6-13.15L8.6-13.15Q8.6-9.15 10.5-6.88 12.4-4.6 15.75-4.6L15.75-4.6Q17.2-4.6 18.23-4.73 19.25-4.85 19.9-5L19.9-5 19.9-20Q19.1-20.55 17.78-21.03 16.45-21.5 14.95-21.5L14.95-21.5Q11.65-21.5 10.13-19.25 8.6-17 8.6-13.15ZM25.95-38.8L25.95-0.8Q24.15-0.25 21.43 0.2 18.7 0.65 15.7 0.65L15.7 0.65Q12.6 0.65 10.15-0.3 7.7-1.25 5.98-3.03 4.25-4.8 3.33-7.33 2.4-9.85 2.4-13L2.4-13Q2.4-16.1 3.18-18.63 3.95-21.15 5.45-22.95 6.95-24.75 9.1-25.73 11.25-26.7 14.05-26.7L14.05-26.7Q15.95-26.7 17.4-26.25 18.85-25.8 19.9-25.25L19.9-25.25 19.9-37.8 25.95-38.8ZM39.7 0L33.65 0 33.65-37.8 39.7-38.8 39.7-25.85Q40.7-26.2 42.02-26.45 43.35-26.7 44.65-26.7L44.65-26.7Q47.8-26.7 49.87-25.83 51.95-24.95 53.2-23.38 54.45-21.8 54.97-19.6 55.5-17.4 55.5-14.7L55.5-14.7 55.5 0 49.45 0 49.45-13.75Q49.45-15.85 49.17-17.32 48.9-18.8 48.27-19.73 47.65-20.65 46.6-21.08 45.55-21.5 44-21.5L44-21.5Q42.8-21.5 41.55-21.25 40.3-21 39.7-20.8L39.7-20.8 39.7 0ZM71.95-4.25L71.95-4.25Q74.75-4.25 76.2-4.55L76.2-4.55 76.2-11.25Q75.7-11.4 74.75-11.55 73.8-11.7 72.65-11.7L72.65-11.7Q71.65-11.7 70.62-11.55 69.59-11.4 68.77-11 67.95-10.6 67.45-9.88 66.95-9.15 66.95-8.05L66.95-8.05Q66.95-5.9 68.3-5.08 69.65-4.25 71.95-4.25ZM71.45-26.8L71.45-26.8Q74.45-26.8 76.5-26.05 78.55-25.3 79.77-23.95 81-22.6 81.52-20.68 82.05-18.75 82.05-16.45L82.05-16.45 82.05-0.6Q80.65-0.3 77.82 0.13 75 0.55 71.45 0.55L71.45 0.55Q69.09 0.55 67.15 0.1 65.2-0.35 63.82-1.35 62.45-2.35 61.67-3.95 60.9-5.55 60.9-7.9L60.9-7.9Q60.9-10.15 61.77-11.7 62.65-13.25 64.15-14.23 65.65-15.2 67.62-15.63 69.59-16.05 71.75-16.05L71.75-16.05Q72.75-16.05 73.84-15.93 74.95-15.8 76.2-15.5L76.2-15.5 76.2-16.5Q76.2-17.55 75.95-18.5 75.7-19.45 75.07-20.18 74.45-20.9 73.42-21.3 72.4-21.7 70.84-21.7L70.84-21.7Q68.75-21.7 67-21.4 65.25-21.1 64.15-20.7L64.15-20.7 63.4-25.6Q64.55-26 66.75-26.4 68.95-26.8 71.45-26.8ZM89.44 0L89.44-25.3Q91.19-25.8 93.99-26.25 96.79-26.7 100.19-26.7L100.19-26.7Q103.39-26.7 105.54-25.83 107.69-24.95 108.97-23.38 110.24-21.8 110.77-19.58 111.29-17.35 111.29-14.7L111.29-14.7 111.29 0 105.24 0 105.24-13.75Q105.24-15.85 104.97-17.32 104.69-18.8 104.07-19.73 103.44-20.65 102.37-21.08 101.29-21.5 99.74-21.5L99.74-21.5Q98.59-21.5 97.34-21.35 96.09-21.2 95.49-21.1L95.49-21.1 95.49 0 89.44 0ZM118.69 0L118.69-25.3Q120.44-25.8 123.24-26.25 126.04-26.7 129.44-26.7L129.44-26.7Q132.64-26.7 134.79-25.83 136.94-24.95 138.22-23.38 139.49-21.8 140.02-19.58 140.54-17.35 140.54-14.7L140.54-14.7 140.54 0 134.49 0 134.49-13.75Q134.49-15.85 134.22-17.32 133.94-18.8 133.31-19.73 132.69-20.65 131.62-21.08 130.54-21.5 128.99-21.5L128.99-21.5Q127.84-21.5 126.59-21.35 125.34-21.2 124.74-21.1L124.74-21.1 124.74 0 118.69 0ZM162.24-26.15L168.49-26.15Q164.44-11.25 159.09 0.85L159.09 0.85Q158.09 3.1 157.04 4.7 155.99 6.3 154.69 7.35 153.39 8.4 151.79 8.88 150.19 9.35 148.09 9.35L148.09 9.35Q146.69 9.35 145.31 9.05 143.94 8.75 143.24 8.4L143.24 8.4 144.34 3.55Q146.14 4.25 147.89 4.25L147.89 4.25Q150.24 4.25 151.56 3.13 152.89 2 153.89-0.35L153.89-0.35Q151.04-5.85 148.41-12.35 145.79-18.85 143.74-26.15L143.74-26.15 150.19-26.15Q150.69-24.05 151.41-21.6 152.14-19.15 152.99-16.63 153.84-14.1 154.79-11.6 155.74-9.1 156.69-6.95L156.69-6.95Q158.29-11.4 159.69-16.43 161.09-21.45 162.24-26.15L162.24-26.15Z" opacity="1" transform="matrix(1,0,0,1,0,0)" fill="white" class="wordmark-text-0" id="SvgjsPath1415"></path></svg></g></svg></g></svg></g></svg></g><g></g></svg></g></svg></g></svg></g></svg></g><defs><mask></mask></defs></svg></g></mask><linearGradient x1="0" x2="1" y1="0.548" y2="0.55" id="24a3ac81-1e99-4baf-b773-4b3766b25faa"><stop stop-color="#ff6cab" offset="0"></stop><stop stop-color="#7366ff" offset="1"></stop></linearGradient><rect width="320.00067138671875" height="360" fill="url(#24a3ac81-1e99-4baf-b773-4b3766b25faa)" mask="url(#6d0875ad-6ae5-4061-8304-66acb01d8ae0)" data-fill-palette-color="primary"></rect><mask id="b0fbd575-6397-4795-ac92-4ffef9a8bd89"><g id="SvgjsG1425"><svg viewBox="0 0 320 360" height="360" width="320"><g><svg></svg></g><g><svg viewBox="0 0 320 360" height="360" width="320"><g><path xmlns="http://www.w3.org/2000/svg" d="M307.925 179.999l6.575-11.387c11.322-19.607 4.604-44.679-15.003-56.001l-11.387-6.575v-13.151c0-22.639-18.354-40.994-40.994-40.994h-13.151l-6.575-11.387c-11.322-19.607-36.393-26.325-56.001-15.003l-11.39 6.572-11.387-6.576c-19.607-11.318-44.679-4.6-56.001 15.007l-6.575 11.387h-13.151c-22.639 0-40.994 18.354-40.994 40.994v13.151l-11.387 6.575c-19.607 11.322-26.325 36.393-15.003 56.001l6.572 11.387-6.576 11.387c-11.318 19.607-4.6 44.679 15.007 56l11.387 6.576v13.15c0 22.639 18.354 40.994 40.994 40.994h13.151l6.575 11.387c11.322 19.607 36.393 26.325 56.001 15.003l11.387-6.571 11.387 6.575c19.607 11.322 44.679 4.604 56-15.003l6.576-11.387h13.15c22.639 0 40.994-18.354 40.994-40.994v-13.151l11.387-6.575c19.607-11.322 26.325-36.393 15.003-56.001zM297.702 115.716c8.655 4.996 14.842 13.062 17.428 22.713 2.586 9.65 1.261 19.734-3.735 28.384l-5.538 9.596-17.747-30.74v-35.494zM251.155 271.155l-57.791 33.365h-66.731l-57.791-33.365-33.365-57.791v-66.731l33.365-57.791 57.791-33.365h66.731l57.791 33.365 33.365 57.791v66.731zM284.517 220.539v31.351l-27.151 15.676zM247.566 277.366l-15.676 27.151h-31.351zM187.15 308.106l-27.151 15.676-27.151-15.676zM119.459 304.517h-31.352l-15.676-27.151zM62.632 267.566l-27.151-15.676v-31.351zM31.891 207.15l-15.675-27.151 15.675-27.151zM35.481 139.459v-31.352l27.151-15.676zM72.431 82.632l15.676-27.151h31.352zM132.848 51.891l27.151-15.675 27.151 15.675zM200.539 55.481h31.351l15.676 27.151zM257.366 92.431l27.151 15.676v31.352zM288.106 152.848l15.676 27.151-15.676 27.151zM247.112 55.481c9.992 0 19.384 3.889 26.452 10.956 7.063 7.063 10.956 16.46 10.957 26.452v11.079l-30.741-17.747-17.747-30.74zM173.18 28.606c8.655-4.996 18.735-6.322 28.385-3.735 9.65 2.586 17.716 8.777 22.712 17.428l5.538 9.596h-35.494l-30.741-17.747zM95.716 42.295c4.996-8.655 13.062-14.842 22.713-17.428 9.65-2.586 19.734-1.261 28.384 3.736l9.596 5.537-30.74 17.747h-35.494zM35.481 92.885c0-9.992 3.889-19.384 10.956-26.452 7.063-7.063 16.46-10.956 26.452-10.956h11.079l-17.747 30.74-30.74 17.747zM8.606 166.817c-4.996-8.655-6.322-18.735-3.735-28.385 2.586-9.65 8.777-17.716 17.428-22.712l9.596-5.538v35.495l-17.747 30.74zM22.295 244.281c-8.655-4.996-14.842-13.062-17.428-22.712-2.586-9.65-1.261-19.734 3.736-28.385l5.537-9.596 17.747 30.74v35.495zM72.885 304.517c-9.992 0-19.384-3.889-26.452-10.957-7.063-7.063-10.956-16.46-10.956-26.451v-11.08l30.74 17.747 17.747 30.741zM146.817 331.391c-8.655 4.996-18.735 6.322-28.385 3.735-9.65-2.586-17.716-8.777-22.712-17.428l-5.538-9.596h35.495l30.74 17.747zM224.281 317.702c-4.996 8.655-13.062 14.842-22.712 17.428-9.65 2.586-19.734 1.261-28.385-3.735l-9.596-5.538 30.74-17.747h35.495zM284.517 267.112c0 9.992-3.889 19.384-10.957 26.452-7.063 7.063-16.46 10.956-26.451 10.957h-11.08l17.747-30.741 30.741-17.747zM315.13 221.565c-2.586 9.65-8.777 17.716-17.428 22.712l-9.596 5.538v-35.494l17.747-30.741 5.538 9.596c4.996 8.658 6.326 18.739 3.739 28.389z" fill="white" fill-rule="nonzero" stroke="none" stroke-width="1" stroke-linecap="butt" stroke-linejoin="miter" stroke-miterlimit="10" stroke-dasharray="" stroke-dashoffset="0" font-family="none" font-weight="none" font-size="none" text-anchor="none" style="mix-blend-mode: normal"></path></g><g transform="matrix(1,0,0,1,64,152.17098133654426)"><svg viewBox="0 0 192 55.6580373269115" height="55.6580373269115" width="192"><g><svg viewBox="0 0 192 55.6580373269115" height="55.6580373269115" width="192"><g><svg viewBox="0 0 192 55.6580373269115" height="55.6580373269115" width="192"><g><svg viewBox="0 0 192 55.6580373269115" height="55.6580373269115" width="192"><g id="SvgjsG1424"><svg viewBox="0 0 192 55.6580373269115" height="55.6580373269115" width="192" id="SvgjsSvg1423"><g><svg viewBox="0 0 192 55.6580373269115" height="55.6580373269115" width="192"><g transform="matrix(1,0,0,1,0,0)"><svg width="192" viewBox="2.4000000953674316 -38.79999923706055 166.0900115966797 48.150001525878906" height="55.6580373269115" data-palette-color="url(#24a3ac81-1e99-4baf-b773-4b3766b25faa)"></svg></g></svg></g></svg></g></svg></g><g></g></svg></g></svg></g></svg></g></svg></g><defs><mask></mask></defs><mask><g id="SvgjsG1422"><svg viewBox="0 0 320 360" height="360" width="320"><g><svg></svg></g><g><svg viewBox="0 0 320 360" height="360" width="320"><g></g><g transform="matrix(1,0,0,1,64,152.17098133654426)"><svg viewBox="0 0 192 55.6580373269115" height="55.6580373269115" width="192"><g><svg viewBox="0 0 192 55.6580373269115" height="55.6580373269115" width="192"><g><svg viewBox="0 0 192 55.6580373269115" height="55.6580373269115" width="192"><g><svg viewBox="0 0 192 55.6580373269115" height="55.6580373269115" width="192"><g id="SvgjsG1421"><svg viewBox="0 0 192 55.6580373269115" height="55.6580373269115" width="192" id="SvgjsSvg1420"><g><svg viewBox="0 0 192 55.6580373269115" height="55.6580373269115" width="192"><g transform="matrix(1,0,0,1,0,0)"><svg width="192" viewBox="2.4000000953674316 -38.79999923706055 166.0900115966797 48.150001525878906" height="55.6580373269115" data-palette-color="url(#24a3ac81-1e99-4baf-b773-4b3766b25faa)"></svg></g></svg></g></svg></g></svg></g><g></g></svg></g></svg></g></svg></g></svg></g><defs><mask></mask></defs></svg></g></mask></svg></g></mask><linearGradient x1="0" x2="1" y1="0.548" y2="0.55" id="9eee9184-4d4f-49b0-b6b7-983dab6521cc"><stop stop-color="#ff6cab" offset="0"></stop><stop stop-color="#7366ff" offset="1"></stop></linearGradient></svg><rect width="320" height="360" fill="none" stroke="none" visibility="hidden"></rect></g></svg></g></svg>